<svg version="1.1" xmlns="http://www.w3.org/2000/svg" xmlns:xlink="http://www.w3.org/1999/xlink" x="0px" y="0px"
     width="348.4655px" height="64.3315px" viewBox="0 0 1393.866 257.326" enable-background="new 0 0 1393.866 257.326"
     xml:space="preserve">
    <g id="Layer_1">
        <g>
            <path fill="#80BADC" d="M925.565,201.469V42.438c0-1.624,0.568-3.007,1.707-4.146c1.137-1.136,2.52-1.707,4.146-1.707
                c1.623,0,3.049,0.571,4.27,1.707c1.219,1.14,1.828,2.523,1.828,4.146v159.031c0,1.627-0.609,3.011-1.828,4.146
                c-1.221,1.14-2.646,1.708-4.27,1.708c-1.627,0-3.01-0.568-4.146-1.708C926.133,204.48,925.565,203.097,925.565,201.469z"/>
            <path fill="#80BADC" d="M1074.838,89.514c1.135-1.136,2.518-1.708,4.146-1.708c1.623,0,3.006,0.572,4.146,1.708
                c1.135,1.14,1.707,2.523,1.707,4.146v107.809c0,1.627-0.572,3.011-1.707,4.146c-1.141,1.14-2.523,1.708-4.146,1.708
                c-1.629,0-3.012-0.568-4.146-1.708c-1.141-1.136-1.709-2.519-1.709-4.146v-17.806c-5.205,7.317-11.748,13.091-19.635,17.318
                c-7.889,4.23-16.303,6.342-25.244,6.342c-15.611,0-28.945-5.854-40.002-17.562c-11.061-11.708-16.586-25.771-16.586-42.197
                c0-16.422,5.525-30.489,16.586-42.197c11.057-11.708,24.391-17.562,40.002-17.562c8.941,0,17.355,2.115,25.244,6.342
                c7.887,4.23,14.43,9.92,19.635,17.074V93.66C1073.129,92.037,1073.698,90.653,1074.838,89.514z M983.37,147.565
                c0,13.335,4.43,24.677,13.295,34.025c8.859,9.353,19.428,14.025,31.707,14.025c12.277,0,22.807-4.672,31.588-14.025
                c8.781-9.349,13.17-20.69,13.17-34.025c0-13.332-4.389-24.715-13.17-34.148c-8.781-9.429-19.311-14.147-31.588-14.147
                c-12.279,0-22.848,4.718-31.707,14.147C987.799,122.85,983.37,134.233,983.37,147.565z"/>
            <path fill="#80BADC" d="M1135.569,201.469V42.438c0-1.624,0.568-3.007,1.707-4.146c1.137-1.136,2.52-1.707,4.146-1.707
                c1.623,0,3.049,0.571,4.27,1.707c1.219,1.14,1.828,2.523,1.828,4.146v68.783c5.367-7.153,12.031-12.843,20.002-17.074
                c7.965-4.227,16.586-6.342,25.854-6.342c16.098,0,29.758,5.854,40.977,17.562c11.221,11.708,16.83,25.816,16.83,42.318
                c0,16.506-5.609,30.573-16.83,42.197c-11.219,11.628-24.879,17.44-40.977,17.44c-9.268,0-17.889-2.073-25.854-6.22
                c-7.971-4.146-14.635-9.794-20.002-16.952v17.318c0,1.627-0.609,3.011-1.828,4.146c-1.221,1.14-2.646,1.708-4.27,1.708
                c-1.627,0-3.01-0.568-4.146-1.708C1136.137,204.48,1135.569,203.097,1135.569,201.469z M1147.52,145.857v1.951
                c0,13.171,4.512,24.391,13.537,33.66c9.025,9.269,19.838,13.903,32.441,13.903c12.6,0,23.373-4.634,32.318-13.903
                c8.939-9.269,13.414-20.527,13.414-33.782c0-13.251-4.475-24.551-13.414-33.904c-8.945-9.349-19.678-14.025-32.197-14.025
                c-12.523,0-23.213,4.475-32.074,13.416C1152.68,122.118,1148.008,133.014,1147.52,145.857z"/>
            <path fill="#80BADC" d="M1288.987,190.25c-2.768-2.439-3.012-5.039-0.732-7.805c0.977-1.3,2.275-2.031,3.902-2.195
                c1.625-0.16,3.088,0.328,4.391,1.463c12.684,9.269,24.229,13.903,34.637,13.903c10.404,0,18.617-2.439,24.635-7.317
                c6.014-4.062,8.982-8.819,8.902-14.269c-0.084-5.446-2.766-10.283-8.049-14.513c-5.285-4.227-13.865-7.317-25.732-9.269
                l-0.488-0.244c-12.684-2.275-21.707-5.366-27.074-9.269c-8.621-5.039-12.928-12.196-12.928-21.464s4.307-17.074,12.928-23.416
                c7.805-5.366,17.562-8.049,29.27-8.049c4.715,0,9.471,0.774,14.27,2.317c4.793,1.547,8.453,3.011,10.975,4.39
                c2.52,1.384,5.977,3.457,10.367,6.22c1.299,0.976,2.111,2.279,2.439,3.903c0.324,1.627,0.08,3.091-0.732,4.391
                c-0.814,1.303-2.035,2.115-3.658,2.439c-1.627,0.328-3.092,0.084-4.391-0.732c-4.066-2.763-7.115-4.756-9.146-5.976
                c-2.035-1.22-5-2.519-8.902-3.903c-3.902-1.379-7.646-2.073-11.221-2.073c-9.432,0-16.83,2.157-22.195,6.464
                c-5.367,4.311-8.049,8.823-8.049,13.537c0,4.718,2.273,8.865,6.828,12.439c5.691,3.903,13.82,6.669,24.393,8.293h0.486
                c10.568,1.627,20.246,4.878,29.025,9.756c8.941,5.854,13.416,13.701,13.416,23.538c0,9.84-4.432,18.05-13.293,24.635
                c-8.865,6.585-18.904,9.878-30.123,9.878C1317.684,207.163,1302.969,201.469,1288.987,190.25z"/>
        </g>
        <g>
            <path fill="#1D1D1D" d="M22.684,201.469V42.438c0-1.624,0.568-3.007,1.708-4.146c1.136-1.136,2.519-1.707,4.146-1.707
                c1.624,0,3.049,0.571,4.269,1.707c1.22,1.14,1.83,2.523,1.83,4.146v114.883l70.734-70.491c2.763-2.763,5.526-2.763,8.293,0
                c1.3,1.14,1.951,2.481,1.951,4.024c0,1.547-0.651,2.969-1.951,4.269l-46.1,46.1l46.343,56.344
                c2.439,2.927,2.275,5.774-0.488,8.537c-0.976,0.816-2.439,1.22-4.39,1.22s-3.335-0.732-4.146-2.195L59.027,149.76l-24.391,24.392
                v27.318c0,1.627-0.61,3.011-1.83,4.146c-1.22,1.14-2.645,1.708-4.269,1.708c-1.627,0-3.011-0.568-4.146-1.708
                C23.251,204.48,22.684,203.097,22.684,201.469z"/>
            <path fill="#1D1D1D" d="M159.518,60.244v-5.61c0-1.624,0.568-3.007,1.708-4.146c1.136-1.136,2.519-1.708,4.146-1.708
                c1.624,0,3.049,0.572,4.27,1.708c1.219,1.14,1.828,2.523,1.828,4.146v5.61c0,1.792-0.609,3.293-1.828,4.513
                c-1.221,1.219-2.646,1.829-4.27,1.829c-1.627,0-3.01-0.61-4.146-1.829C160.086,63.537,159.518,62.036,159.518,60.244z
                 M159.518,201.469V93.66c0-1.624,0.568-3.007,1.708-4.146c1.136-1.136,2.561-1.708,4.269-1.708c1.707,0,3.129,0.572,4.268,1.708
                c1.136,1.14,1.707,2.523,1.707,4.146v107.809c0,1.627-0.609,3.011-1.828,4.146c-1.221,1.14-2.646,1.708-4.27,1.708
                c-1.627,0-3.01-0.568-4.146-1.708C160.086,204.48,159.518,203.097,159.518,201.469z"/>
            <path fill="#1D1D1D" d="M234.153,207.323h-1.463c-2.439-0.324-4.066-1.788-4.879-4.391V93.66c0-1.624,0.568-2.965,1.707-4.024
                c1.137-1.056,2.479-1.585,4.025-1.585c1.543,0,2.885,0.53,4.024,1.585c1.136,1.06,1.708,2.401,1.708,4.024v11.464
                c9.592-11.38,21.867-17.074,36.83-17.074c9.105,0,17.439,2.317,25.002,6.952c7.561,4.634,13.453,10.774,17.684,18.415
                c4.391-7.641,10.404-13.781,18.049-18.415c7.641-4.635,15.934-6.952,24.879-6.952c13.332,0,24.758,4.756,34.27,14.269
                c9.514,9.513,14.27,20.938,14.27,34.27v65.125c0,1.463-0.572,2.767-1.707,3.902c-1.141,1.14-2.523,1.708-4.146,1.708
                c-1.629,0-2.971-0.568-4.025-1.708c-1.059-1.136-1.586-2.439-1.586-3.902v-65.125c-0.328-10.245-4.066-18.983-11.219-26.221
                c-7.158-7.233-15.775-10.854-25.855-10.854c-10.084,0-18.742,3.659-25.977,10.976c-7.238,7.317-10.854,16.018-10.854,26.099
                v65.856l-0.244,0.488v0.488c-0.328,1.14-1.141,2.074-2.439,2.805c-1.303,0.732-2.439,1.098-3.414,1.098h-1.221l-1.951-0.976
                c-0.164,0-0.529-0.324-1.098-0.976c-0.572-0.648-0.895-1.056-0.975-1.22c-0.084-0.16-0.164-0.366-0.244-0.61
                c-0.084-0.244-0.207-0.446-0.367-0.61v-66.344c0-10.245-3.578-18.983-10.73-26.221c-7.158-7.233-15.855-10.854-26.1-10.854
                s-18.945,3.621-26.098,10.854c-7.158,7.237-10.732,15.976-10.732,26.221v65.125c0,2.115-0.896,3.659-2.683,4.634
                C235.94,207,235.128,207.323,234.153,207.323z"/>
            <path fill="#1D1D1D" d="M470.744,189.64c-11.059-11.788-16.586-25.813-16.586-42.075c0-16.258,5.527-30.283,16.586-42.075
                c11.057-11.788,24.393-17.684,40.002-17.684c15.611,0,28.941,5.896,40.002,17.684c11.057,11.792,16.586,25.817,16.586,42.075
                c0,16.262-5.529,30.287-16.586,42.075c-11.061,11.792-24.391,17.684-40.002,17.684
                C495.137,207.323,481.801,201.431,470.744,189.64z M510.746,99.27c-12.195,0-22.727,4.718-31.586,14.147
                c-8.865,9.433-13.293,20.774-13.293,34.026c0,13.255,4.428,24.597,13.293,34.026c8.859,9.432,19.391,14.146,31.586,14.146
                s22.723-4.714,31.586-14.146c8.861-9.429,13.295-20.771,13.295-34.026c0-13.251-4.434-24.593-13.295-34.026
                C533.469,103.988,522.941,99.27,510.746,99.27z"/>
            <path fill="#1D1D1D" d="M623.678,202.445c-0.814,3.255-2.682,4.878-5.609,4.878h-1.463c-1.791-0.488-3.092-1.543-3.902-3.171
                c-0.164-0.16-0.244-0.404-0.244-0.732l-0.244-0.488V93.904c0-1.624,0.568-3.007,1.707-4.146c1.137-1.136,2.52-1.708,4.146-1.708
                c1.623,0,2.965,0.572,4.025,1.708c1.055,1.139,1.584,2.523,1.584,4.146v11.464c9.594-11.544,21.504-17.318,35.735-17.318
                c14.227,0,26.098,4.756,35.611,14.269c9.512,9.513,14.268,20.938,14.268,34.27v64.88c0,1.627-0.57,3.011-1.707,4.146
                c-1.139,1.14-2.523,1.708-4.146,1.708c-1.627,0-3.01-0.568-4.146-1.708c-1.139-1.136-1.707-2.519-1.707-4.146v-64.88
                c0-10.081-3.578-18.739-10.732-25.977c-7.156-7.234-15.816-10.854-25.977-10.854c-10.164,0-18.822,3.579-25.977,10.732
                c-7.159,7.157-10.897,15.854-11.221,26.099V202.445z"/>
            <path fill="#1D1D1D" d="M772.708,189.64c-11.061-11.788-16.586-25.813-16.586-42.075c0-16.258,5.525-30.283,16.586-42.075
                c11.055-11.788,24.391-17.684,40-17.684c15.611,0,28.943,5.896,40.002,17.684c11.057,11.792,16.586,25.817,16.586,42.075
                c0,16.262-5.529,30.287-16.586,42.075c-11.059,11.792-24.391,17.684-40.002,17.684
                C797.098,207.323,783.762,201.431,772.708,189.64z M812.708,99.27c-12.195,0-22.725,4.718-31.586,14.147
                c-8.865,9.433-13.293,20.774-13.293,34.026c0,13.255,4.428,24.597,13.293,34.026c8.861,9.432,19.391,14.146,31.586,14.146
                c12.197,0,22.723-4.714,31.588-14.146c8.861-9.429,13.293-20.771,13.293-34.026c0-13.251-4.432-24.593-13.293-34.026
                C835.43,103.988,824.905,99.27,812.708,99.27z"/>
        </g>
    </g>
</svg>